<svg width="22" height="22" viewBox="0 0 22 22" fill="none" xmlns="http://www.w3.org/2000/svg">
<path d="M15.2009 2.19889L14.2528 1.80616C12.1701 0.943463 9.82993 0.943462 7.74719 1.80616L6.79906 2.19889C4.71632 3.06159 3.06159 4.71632 2.19889 6.79906L1.80616 7.74719C0.943463 9.82993 0.943462 12.1701 1.80616 14.2528L2.19889 15.2009C3.06159 17.2837 4.71632 18.9384 6.79906 19.8011L7.74719 20.1938C9.82993 21.0565 12.1701 21.0565 14.2528 20.1938L15.2009 19.8011C17.2837 18.9384 18.9384 17.2837 19.8011 15.2009L20.1938 14.2528C21.0565 12.1701 21.0565 9.82993 20.1938 7.74719L19.8011 6.79906C18.9384 4.71632 17.2837 3.06159 15.2009 2.19889Z" fill="url(#paint0_linear_212_5)" stroke="#BA9944"/>
<path d="M16.8386 11.8178C16.7482 11.846 16.5706 11.8596 16.4146 11.8721C16.2779 11.8826 16.1499 11.893 16.0756 11.9119C16.0056 11.9296 15.9368 11.961 15.8808 11.9913L15.8873 11.9778L15.8109 11.983C15.8023 11.984 15.5913 11.9987 15.4934 12.0395C15.4805 12.0447 15.4687 12.051 15.4568 12.0572L15.4633 12.0374L15.3987 12.0384C15.3729 12.0395 15.1404 12.0447 15.049 12.1001C15.036 12.1074 15.0231 12.1168 15.0113 12.1262L15.0199 12.1012L14.9596 12.098C14.951 12.097 14.7455 12.0855 14.6217 12.1461C14.5862 12.1629 14.5539 12.1848 14.526 12.2068L14.5367 12.1639L14.4722 12.1702C14.4625 12.1712 14.2257 12.1963 14.1052 12.2852C14.0912 12.2957 14.0783 12.3051 14.0665 12.3155L14.089 12.2298L14.0169 12.2434C14.0073 12.2455 13.7716 12.2894 13.6199 12.3814C13.6005 12.3929 13.5822 12.4055 13.566 12.417L13.5951 12.3574L13.4907 12.395C13.481 12.3981 13.24 12.4849 13.0947 12.5968C13.0646 12.6198 13.0377 12.6429 13.014 12.6648L13.0248 12.6303L12.9365 12.6648C12.9311 12.6669 12.887 12.6847 12.8224 12.7213C12.887 12.6585 12.929 12.6062 12.9322 12.6021L12.9817 12.5393L12.8999 12.531C12.8999 12.531 12.8935 12.5299 12.8838 12.5289C13.2066 12.3751 13.3089 12.1315 13.3142 12.12L13.339 12.0593H13.3045C13.6489 11.8774 13.7135 11.6567 13.7156 11.6462L13.7296 11.5961L13.6941 11.5919C13.7361 11.571 13.7791 11.5438 13.8157 11.5113C13.9319 11.4089 14.0514 11.1014 14.0568 11.0889L14.0815 11.0261L14.018 11.0282C14.0611 11 14.103 10.9676 14.1342 10.9341C14.2214 10.8379 14.3161 10.6204 14.3204 10.612L14.3452 10.5545L14.2343 10.5472C14.2914 10.5127 14.3538 10.4687 14.3947 10.4227C14.4851 10.3213 14.6045 10.0013 14.6099 9.98769L14.6325 9.92808H14.5647C14.5755 9.91762 14.5873 9.90716 14.5991 9.89462C14.6852 9.80782 14.7907 9.5035 14.8025 9.469L14.823 9.4073L14.7627 9.41043C14.8725 9.28285 14.8832 9.0852 14.8843 9.07475L14.8865 9.02769H14.8445C14.8746 8.99841 14.9058 8.96599 14.9241 8.93357C14.979 8.84154 15.0468 8.24756 15.0511 8.19527L15.0673 8.01435L14.9661 8.16703C14.9015 8.26533 14.8154 8.34272 14.7315 8.41697C14.6131 8.52259 14.4915 8.63135 14.4248 8.80076C14.4216 8.79448 14.4183 8.78716 14.4151 8.78089L14.3893 8.72547L14.343 8.76625C14.2225 8.87187 14.1579 8.96808 14.1235 9.04128L14.116 8.99004L14.0589 9.01723C13.9298 9.07893 13.8512 9.20756 13.8071 9.31004L13.7867 9.23998L13.7318 9.28599C13.7264 9.29017 13.6069 9.39266 13.5284 9.48886C13.5026 9.52128 13.48 9.56102 13.4627 9.60076L13.4423 9.49096L13.3799 9.55893C13.3788 9.55998 13.2798 9.66873 13.1625 9.79213C13.0979 9.86011 13.0581 9.9469 13.0355 10.018C13.0301 10.0065 13.0247 9.99605 13.0204 9.98664L12.9946 9.93122L12.9483 9.972C12.7546 10.1404 12.6815 10.3359 12.6556 10.4823C12.6513 10.4729 12.6459 10.4646 12.6427 10.4583L12.6104 10.407L12.5695 10.452C12.378 10.6612 12.3231 10.8891 12.3123 11.047C12.3059 11.0355 12.2984 11.0251 12.293 11.0167L12.2596 10.9676L12.2198 11.0125C12.0498 11.207 12.0024 11.4685 11.9906 11.6306L11.9594 11.5846L11.9206 11.6431C11.9163 11.6504 11.8076 11.8178 11.7592 12.0029C11.7398 12.0771 11.7259 12.1974 11.7172 12.2936L11.6591 12.1921L11.6258 12.2862C11.6247 12.2883 11.5591 12.4745 11.5031 12.5927C11.4816 12.6387 11.4665 12.6972 11.4557 12.7547L11.4202 12.6523L11.3944 12.7202C11.4213 12.6125 11.4353 12.5079 11.4353 12.5027L11.4471 12.4138L11.4181 12.4306C11.4504 12.3741 11.4805 12.3113 11.4913 12.2549C11.5182 12.1179 11.5095 11.9286 11.5085 11.9202L11.5052 11.8533L11.4148 11.8941C11.4557 11.823 11.502 11.7341 11.5257 11.6557C11.5795 11.4768 11.5913 11.2374 11.5913 11.2269L11.5956 11.1474L11.4891 11.2039C11.5397 11.1255 11.5935 11.0282 11.615 10.9446C11.6581 10.7741 11.671 10.5158 11.672 10.5043L11.6753 10.4457L11.5709 10.4677C11.6236 10.3788 11.6946 10.2387 11.7086 10.0996C11.7312 9.87788 11.6893 9.71998 11.6871 9.7137L11.672 9.65828L11.5989 9.69697C11.6312 9.61958 11.6677 9.51815 11.6785 9.43239C11.699 9.27344 11.6817 9.06429 11.6807 9.05488L11.6753 8.98377L11.5644 9.04651C11.5903 8.97435 11.6172 8.88128 11.6215 8.79658C11.6312 8.63135 11.6161 8.43998 11.615 8.43161L11.6096 8.36886L11.4956 8.41801C11.5139 8.36259 11.53 8.2852 11.5311 8.18377C11.5332 7.94847 11.5149 7.87527 11.5128 7.8669L11.4988 7.81566L11.3987 7.85958C11.4202 7.8052 11.4407 7.73723 11.4461 7.6703C11.4557 7.52913 11.4407 7.3639 11.4407 7.35658L11.4342 7.28651L11.3191 7.35135C11.3298 7.32416 11.3395 7.29488 11.3471 7.26246C11.3815 7.10978 11.3309 6.88703 11.3288 6.87762L11.3158 6.82011L11.2502 6.85566C11.2653 6.81279 11.2793 6.76468 11.2825 6.71971C11.2911 6.612 11.2717 6.46873 11.2706 6.46246L11.262 6.39658L11.2104 6.42481C11.219 6.39344 11.2265 6.35684 11.2298 6.31919C11.2373 6.21252 11.2287 6.10586 11.2287 6.10167L11.2222 6.01592L11.1501 6.07344C11.177 5.91658 11.1964 5.63945 11.0823 5.34769C11.0382 5.23475 10.9672 4.87605 10.9672 4.87292L10.9123 4.59998L10.8746 4.87501C10.8746 4.8771 10.8477 5.07266 10.7907 5.27449C10.7035 5.58403 10.7229 5.92076 10.7423 6.09017C10.7412 6.08913 10.739 6.08808 10.738 6.08703L10.6831 6.04311L10.6637 6.109C10.626 6.23971 10.64 6.36102 10.6626 6.44573L10.6476 6.43632L10.6217 6.47083C10.5378 6.58377 10.5625 6.75318 10.5927 6.86717C10.5873 6.86298 10.5819 6.8588 10.5755 6.85462L10.5303 6.82115L10.5066 6.87135C10.4313 7.02926 10.4582 7.17671 10.5023 7.28128L10.5012 7.28024L10.4625 7.24677L10.4334 7.2886C10.3183 7.45383 10.3688 7.67239 10.4377 7.83449L10.328 7.73932L10.3043 7.80102C10.2978 7.81671 10.1816 8.13148 10.2741 8.41906C10.2494 8.40024 10.2354 8.38978 10.2354 8.38978L10.1848 8.35109L10.1644 8.41069C10.1601 8.42324 10.0589 8.71396 10.1041 8.89069C10.116 8.93671 10.1289 8.97645 10.1407 9.01096L10.046 8.95449L10.0309 9.03292C10.0116 9.13331 9.96529 9.36756 9.99543 9.51815C10.0073 9.57671 10.0277 9.63527 10.0482 9.68547L9.97713 9.64154L9.97283 9.71788C9.97175 9.73148 9.95346 10.0504 9.99973 10.2732C10.0094 10.3181 10.0223 10.3579 10.0363 10.3924L9.98359 10.361L9.97713 10.4332C9.97606 10.4499 9.94162 10.8347 10.0008 10.9979C10.0288 11.0742 10.0697 11.1443 10.1052 11.1966L10.0385 11.183L10.0395 11.2384C10.0395 11.2499 10.0439 11.5239 10.1386 11.6787C10.1773 11.7425 10.2225 11.8062 10.2623 11.8575L10.2214 11.8449L10.2279 11.9129C10.2289 11.9244 10.2569 12.2047 10.301 12.3072C10.3204 12.3532 10.3495 12.4013 10.3764 12.4431L10.3236 12.4285L10.3355 12.4985C10.3366 12.5048 10.3538 12.6 10.3807 12.6962L10.3484 12.6627L10.3441 12.6742C10.3054 12.5466 10.2483 12.3804 10.1988 12.3155L10.1547 12.2591L10.1321 12.3019C10.1203 12.1503 10.0697 11.9422 9.89535 11.8157L9.8523 11.7843L9.84907 11.7906C9.84584 11.7006 9.83723 11.6076 9.81571 11.5542C9.76944 11.4371 9.61878 11.1893 9.61232 11.1778L9.5682 11.1056L9.51332 11.2185C9.48857 11.0711 9.40678 10.8693 9.16142 10.6978L9.11407 10.6643L9.08932 10.7166C9.08609 10.7249 9.08179 10.7364 9.07748 10.749C9.05811 10.6517 9.02475 10.543 8.96879 10.4625C8.85795 10.3035 8.69007 10.1864 8.68254 10.1822L8.63627 10.1498L8.60506 10.2198C8.57493 10.0797 8.48345 9.89566 8.23379 9.76285L8.19182 9.74089L8.1703 9.78272C8.16707 9.789 8.16384 9.79632 8.16061 9.80468C8.14447 9.73775 8.11649 9.6656 8.06591 9.61122C7.94861 9.48468 7.75706 9.38115 7.74953 9.37592L7.69787 9.34769L7.68819 9.3822C7.65698 9.32886 7.61286 9.26926 7.55798 9.2337C7.45359 9.16468 7.35566 9.11449 7.35136 9.11239L7.30078 9.08625L7.27818 9.16468C7.2276 9.06324 7.12537 8.93148 6.9209 8.83318L6.86387 8.80599L6.85526 8.86141C6.80468 8.79658 6.72612 8.71815 6.6056 8.65645C6.3753 8.53828 5.98251 8.42533 5.96529 8.42115L5.60586 8.31867L5.92978 8.50272C6.00296 8.54455 6.10734 8.69514 6.2085 8.8405C6.30213 8.9754 6.39898 9.11449 6.49583 9.21069C6.48076 9.20965 6.47215 9.2086 6.47215 9.2086L6.40221 9.19919L6.42265 9.26507C6.4248 9.27344 6.48507 9.46481 6.57654 9.56311C6.6099 9.59971 6.65402 9.63422 6.69599 9.6635C6.69276 9.6635 6.68846 9.66455 6.68523 9.66455L6.61959 9.67187L6.64864 9.72939C6.77563 9.97723 6.93167 10.1247 7.04358 10.2062C7.03175 10.2062 7.02098 10.2073 7.01238 10.2083L6.96287 10.2125L6.97041 10.2596C7.00377 10.453 7.16842 10.6015 7.28679 10.6862L7.16734 10.6925L7.18348 10.7459C7.18671 10.7553 7.25235 10.978 7.38149 11.0941C7.43637 11.1432 7.49233 11.1819 7.53861 11.2091L7.40409 11.2426L7.43422 11.2938C7.4396 11.3022 7.5612 11.5072 7.71724 11.6232C7.75491 11.6515 7.79042 11.6734 7.82271 11.6912C7.82055 11.6912 7.81948 11.6912 7.81733 11.6912L7.71832 11.687L7.77966 11.7634C7.79257 11.7791 7.80549 11.7979 7.81948 11.8167C7.87974 11.9014 7.96153 12.0185 8.13371 12.0917C8.17245 12.1085 8.21227 12.1221 8.24993 12.1325L8.1972 12.1482L8.22303 12.1963C8.22626 12.2026 8.30589 12.3479 8.4996 12.464C8.57385 12.509 8.6481 12.5404 8.7116 12.5634L8.60183 12.5885L8.66855 12.646C8.68254 12.6575 9.00646 12.9336 9.19048 12.9723C9.21523 12.9775 9.23783 12.9817 9.25935 12.9859L9.21415 13.0005L9.25827 13.0517C9.26258 13.057 9.35943 13.1689 9.49825 13.2264C9.51439 13.2327 9.52946 13.2389 9.54345 13.2442L9.45628 13.2713L9.53053 13.3226C9.53914 13.3289 9.73931 13.4659 9.91256 13.5265C9.92871 13.5317 9.9427 13.537 9.95669 13.5422L9.85983 13.5568C9.78558 13.4983 9.6855 13.4355 9.55744 13.3812L9.50471 13.3592L9.49395 13.4136C9.49395 13.4167 9.49179 13.4251 9.48964 13.4366C9.33253 13.2598 9.25397 13.2117 9.00861 13.1113L8.9548 13.0894L8.94834 13.1302C8.87086 13.0622 8.72774 12.967 8.52004 12.9472L8.46946 12.9419V12.9911C8.46946 12.9953 8.46946 13.0005 8.46946 13.0057C8.38983 12.9346 8.25208 12.8468 8.03686 12.8196L8.00242 12.8154L7.98843 12.8457C7.9852 12.853 7.98197 12.8646 7.97982 12.8792C7.89911 12.8091 7.74845 12.7066 7.52139 12.6617L7.46112 12.6502L7.4665 12.7098C7.4665 12.7129 7.4665 12.715 7.46758 12.7181C7.38472 12.6596 7.23406 12.5989 6.96503 12.5801L6.91337 12.577L6.91552 12.6272C6.91552 12.6303 6.91552 12.6334 6.91552 12.6366C6.83481 12.5665 6.69384 12.4923 6.45386 12.4829L6.40543 12.4808V12.5153C6.33549 12.4462 6.21926 12.3636 6.03955 12.3249L5.98682 12.3134L5.98359 12.3657C5.98359 12.3678 5.98359 12.3699 5.98359 12.372C5.92333 12.3291 5.81894 12.2789 5.64138 12.2476C5.44552 12.212 5.22061 12.0604 5.21846 12.0593L5 11.9161L5.14851 12.1221C5.17111 12.1534 5.19586 12.19 5.22168 12.2298C5.31746 12.373 5.43691 12.5519 5.58542 12.6606C5.65752 12.714 5.75114 12.7516 5.82647 12.7778C5.81679 12.783 5.8071 12.7882 5.79849 12.7945L5.76621 12.8164L5.78235 12.851C5.86414 13.0193 6.11811 13.08 6.24832 13.0998L6.22895 13.127L6.24724 13.1521C6.25047 13.1574 6.33226 13.2713 6.47646 13.3163C6.55717 13.3414 6.64003 13.3498 6.7003 13.3529C6.68953 13.3676 6.6777 13.3853 6.66371 13.4042L6.64003 13.4355L6.66909 13.4627C6.80468 13.5882 7.03605 13.5966 7.1738 13.5882C7.16734 13.5997 7.16088 13.6112 7.1555 13.6227L7.13936 13.6614L7.1781 13.6802C7.40517 13.79 7.58488 13.7995 7.70003 13.7869C7.69895 13.7879 7.69895 13.7879 7.69787 13.789L7.65375 13.8319L7.70864 13.8601C7.85714 13.9354 7.94216 13.9636 8.06053 13.973C8.10143 13.9762 8.14339 13.9741 8.18214 13.971L8.17137 13.9825L8.21872 14.0107C8.22411 14.0138 8.34571 14.086 8.477 14.0964C8.5265 14.1006 8.58353 14.0954 8.63411 14.0881L8.60721 14.1163L8.68039 14.1341C8.70406 14.1393 8.91068 14.1885 9.00215 14.1812C9.04304 14.178 9.11084 14.1623 9.17433 14.1456L9.12806 14.1968L9.19801 14.2157C9.20877 14.2188 9.45736 14.2857 9.59187 14.2627C9.63922 14.2544 9.69841 14.2397 9.75545 14.2251L9.72209 14.2564L9.81894 14.2679C9.8297 14.269 10.0708 14.2972 10.1687 14.2972C10.1837 14.2972 10.1977 14.2962 10.2139 14.2941L10.2333 14.3119C10.1913 14.3098 10.145 14.3098 10.1052 14.314C9.98682 14.3244 9.80603 14.3997 9.77589 14.4175L9.71455 14.452L9.73608 14.4666C9.64138 14.4792 9.50578 14.5147 9.3831 14.612L9.34759 14.6392L9.37234 14.6706C9.2798 14.6873 9.13774 14.7364 8.99462 14.8745L8.94404 14.9226L8.98601 14.9383C8.90315 14.9655 8.80629 15.0136 8.72774 15.1025L8.69976 15.1338L8.72989 15.1631C8.73742 15.1704 8.74603 15.1778 8.75572 15.184C8.68792 15.2123 8.5986 15.2635 8.53403 15.3493C8.42319 15.4957 8.3145 15.7372 8.3102 15.7477L8.27038 15.8355L8.36508 15.8083C8.37907 15.8042 8.70083 15.7111 8.82459 15.6588C8.90853 15.6232 8.99139 15.5553 9.0495 15.5009L9.05058 15.573L9.10546 15.5605C9.11299 15.5584 9.27979 15.5197 9.3788 15.4287C9.39925 15.4099 9.41969 15.3869 9.43906 15.3639V15.4716L9.49395 15.4601C9.5004 15.4591 9.65429 15.4266 9.75007 15.3252C9.76836 15.3053 9.7845 15.2865 9.79849 15.2698L9.81356 15.3869L9.86844 15.366C9.88136 15.3608 10.1235 15.2687 10.2472 15.0983C10.2472 15.1014 10.2483 15.1035 10.2483 15.1035L10.2569 15.1652L10.314 15.137C10.3355 15.1265 10.5303 15.0282 10.5798 14.932C10.5948 14.9038 10.6088 14.8661 10.6207 14.8285L10.6271 14.8557L10.6831 14.8232C10.7046 14.8107 10.8133 14.7459 10.8499 14.6957C10.8553 14.6883 10.8606 14.681 10.866 14.6737C10.866 14.6789 10.866 14.6842 10.866 14.6894C10.8649 14.8693 10.8649 15.0397 10.8682 15.0868C10.8736 15.1537 10.8456 16.1315 10.8337 16.5038L10.8327 16.5383L10.866 16.5487C10.9381 16.5707 11.0511 16.6 11.1318 16.6C11.163 16.6 11.1889 16.5958 11.2072 16.5843C11.2545 16.555 11.2556 16.4891 11.162 15.9098C11.1329 15.7299 11.1049 15.5595 11.1049 15.503C11.1049 15.4695 11.1049 15.3953 11.106 15.2991C11.1071 15.0962 11.1092 14.8096 11.1082 14.5911C11.1889 14.6936 11.2911 14.7981 11.3664 14.8546L11.4192 14.8933L11.4385 14.8316C11.4385 14.8306 11.4396 14.8295 11.4396 14.8285C11.4999 14.9153 11.6096 15.0282 11.7872 15.0742L11.8367 15.0868L11.8485 15.0178C11.869 15.0418 11.8948 15.0659 11.926 15.0857C12.0261 15.1464 12.1283 15.1547 12.1326 15.1547L12.1886 15.1589L12.1843 15.1234C12.2176 15.1506 12.2607 15.1788 12.3113 15.1997C12.4566 15.2604 12.5835 15.2614 12.5889 15.2614H12.703L12.6707 15.2311C12.7568 15.2646 12.8343 15.2844 12.8397 15.2865L12.9096 15.3043L12.901 15.2562C12.9257 15.274 12.9526 15.2907 12.9763 15.3001C13.0452 15.3262 13.1722 15.3409 13.1776 15.3409L13.2529 15.3493L13.2454 15.3294C13.2809 15.3503 13.3185 15.3702 13.3465 15.3785C13.4283 15.4047 13.5047 15.413 13.5079 15.413L13.5585 15.4183V15.4036C13.5897 15.4256 13.6285 15.4476 13.6737 15.4622C13.6866 15.4664 13.7006 15.4706 13.7167 15.4758C13.8275 15.5093 14.0126 15.5668 14.0858 15.6389L14.2472 15.801L14.1611 15.5919C14.0578 15.3409 13.9954 15.2583 13.8878 15.1391C13.8286 15.0732 13.7479 15.0303 13.6823 15.0021C13.707 14.9864 13.7275 14.9665 13.735 14.9425L13.7425 14.9163L13.7221 14.8975C13.6844 14.864 13.622 14.8191 13.5574 14.795C13.5391 14.7887 13.5187 14.7835 13.4983 14.7814L13.5187 14.7615L13.48 14.7302C13.4724 14.7249 13.3358 14.6172 13.1593 14.6047L13.1916 14.5733L13.1367 14.5451C13.1281 14.5409 12.9709 14.4614 12.7955 14.4687C12.8009 14.4614 12.8041 14.4583 12.8041 14.4583L12.8397 14.4091L12.7805 14.3903C12.7719 14.3872 12.6008 14.3349 12.4555 14.3453L12.4802 14.2962L12.4178 14.2868C12.4081 14.2857 12.2198 14.2585 12.0605 14.2774L12.0659 14.2669L12.0207 14.2533C12.1262 14.2564 12.2037 14.2606 12.2047 14.2617L12.3263 14.269L12.2144 14.1602C12.3177 14.1655 12.4587 14.1696 12.5233 14.1571C12.6298 14.1362 12.7137 14.086 12.717 14.0839L12.7632 14.0557C12.8214 14.064 12.8881 14.0713 12.9376 14.0693C13.169 14.0578 13.2303 14.0107 13.2712 13.9793C13.2766 13.9751 13.2809 13.972 13.2863 13.9689L13.3282 13.9427L13.2981 13.904C13.4509 13.9333 13.6694 13.9364 13.8555 13.7859L13.8878 13.7597L13.8631 13.7262C13.8609 13.7231 13.8588 13.72 13.8566 13.7179C13.9233 13.7283 14.0083 13.7367 14.0858 13.7262C14.2397 13.7053 14.3947 13.6238 14.4011 13.6206L14.456 13.5913L14.4248 13.5621C14.5238 13.561 14.6605 13.5527 14.7476 13.515C14.8886 13.4533 15.007 13.3487 15.0113 13.3446L15.0597 13.3006L15.036 13.2891C15.0942 13.2776 15.1566 13.2567 15.205 13.2201C15.3137 13.1385 15.3546 13.08 15.3567 13.0768L15.3772 13.0465L15.3223 12.9921C15.4267 12.9859 15.5752 12.9534 15.6591 12.8227L15.6785 12.7924L15.6527 12.7673C15.6462 12.761 15.6387 12.7537 15.6301 12.7464C15.7366 12.738 15.8787 12.6941 15.9927 12.5435L16.0229 12.5048L16.0121 12.4985C16.1154 12.4713 16.2704 12.4212 16.3995 12.3427C16.5738 12.2361 16.8752 11.9098 16.887 11.8951L17 11.7717L16.8386 11.8178Z" fill="#937528"/>
<defs>
<linearGradient id="paint0_linear_212_5" x1="11" y1="1" x2="11" y2="21" gradientUnits="userSpaceOnUse">
<stop stop-color="#FDFF87"/>
<stop offset="1" stop-color="#FFDF6D"/>
</linearGradient>
</defs>
</svg>
