<svg width="24" height="19" viewBox="0 0 24 19" fill="none" xmlns="http://www.w3.org/2000/svg">
<path d="M20.317 2.18316C18.7873 1.48128 17.147 0.964164 15.4319 0.66799C15.4007 0.662274 15.3695 0.676559 15.3534 0.705129C15.1424 1.08034 14.9087 1.56984 14.7451 1.95459C12.9004 1.67842 11.0652 1.67842 9.25832 1.95459C9.09465 1.56129 8.85248 1.08034 8.64057 0.705129C8.62449 0.677512 8.59328 0.663228 8.56205 0.66799C6.84791 0.963218 5.20756 1.48033 3.67693 2.18316C3.66368 2.18887 3.65233 2.19841 3.64479 2.21078C0.533392 6.85914 -0.31895 11.3932 0.0991801 15.8711C0.101072 15.893 0.11337 15.914 0.130398 15.9273C2.18321 17.4349 4.17171 18.3501 6.12328 18.9567C6.15451 18.9662 6.18761 18.9548 6.20748 18.9291C6.66913 18.2987 7.08064 17.6339 7.43348 16.9349C7.4543 16.8939 7.43442 16.8454 7.39186 16.8292C6.73913 16.5816 6.1176 16.2797 5.51973 15.9369C5.47244 15.9092 5.46865 15.8416 5.51216 15.8092C5.63797 15.7149 5.76382 15.6168 5.88396 15.5178C5.90569 15.4997 5.93598 15.4959 5.96153 15.5073C9.88928 17.3006 14.1415 17.3006 18.023 15.5073C18.0485 15.495 18.0788 15.4988 18.1015 15.5169C18.2216 15.6159 18.3475 15.7149 18.4742 15.8092C18.5177 15.8416 18.5149 15.9092 18.4676 15.9369C17.8697 16.2863 17.2482 16.5816 16.5945 16.8282C16.552 16.8444 16.533 16.8939 16.5538 16.9349C16.9143 17.6329 17.3258 18.2977 17.7789 18.9281C17.7978 18.9548 17.8319 18.9662 17.8631 18.9567C19.8241 18.3501 21.8126 17.4349 23.8654 15.9273C23.8834 15.914 23.8948 15.894 23.8967 15.8721C24.3971 10.6952 23.0585 6.19823 20.3482 2.21172C20.3416 2.19841 20.3303 2.18887 20.317 2.18316ZM8.02002 13.1446C6.8375 13.1446 5.86313 12.0589 5.86313 10.7256C5.86313 9.39236 6.8186 8.30671 8.02002 8.30671C9.23087 8.30671 10.1958 9.40189 10.1769 10.7256C10.1769 12.0589 9.22141 13.1446 8.02002 13.1446ZM15.9947 13.1446C14.8123 13.1446 13.8379 12.0589 13.8379 10.7256C13.8379 9.39236 14.7933 8.30671 15.9947 8.30671C17.2056 8.30671 18.1705 9.40189 18.1516 10.7256C18.1516 12.0589 17.2056 13.1446 15.9947 13.1446Z" fill="#5865F2"/>
</svg>
