<svg width="24" height="24" viewBox="0 0 24 24" fill="none" xmlns="http://www.w3.org/2000/svg">
<path d="M13.5375 11.6278C13.5375 15.3985 10.507 18.4552 6.76885 18.4552C3.03074 18.4552 0 15.3978 0 11.6278C0 7.85773 3.03051 4.80005 6.76885 4.80005C10.5072 4.80005 13.5375 7.85704 13.5375 11.6278Z" fill="black"/>
<path d="M20.9627 11.6277C20.9627 15.177 19.4474 18.0555 17.5783 18.0555C15.7091 18.0555 14.1938 15.177 14.1938 11.6277C14.1938 8.07839 15.7089 5.19995 17.578 5.19995C19.4472 5.19995 20.9625 8.07747 20.9625 11.6277" fill="black"/>
<path d="M24 11.6276C24 14.807 23.4672 17.3859 22.8097 17.3859C22.1522 17.3859 21.6196 14.8077 21.6196 11.6276C21.6196 8.44763 22.1525 5.86938 22.8097 5.86938C23.467 5.86938 24 8.4474 24 11.6276Z" fill="black"/>
</svg>
