<svg width="24" height="24" viewBox="0 0 24 24" fill="none" xmlns="http://www.w3.org/2000/svg">
<path d="M23.4982 6.62297C23.3625 6.11568 23.0951 5.65269 22.7227 5.28034C22.3503 4.90799 21.8861 4.63935 21.3764 4.50129C19.5 4 12 4 12 4C12 4 4.5 4 2.62364 4.50129C2.11393 4.63935 1.64966 4.90799 1.27729 5.28034C0.904916 5.65269 0.637506 6.11568 0.501818 6.62297C5.96046e-08 8.49535 0 12.4 0 12.4C0 12.4 5.96046e-08 16.3046 0.501818 18.177C0.637506 18.6843 0.904916 19.1473 1.27729 19.5197C1.64966 19.892 2.11393 20.1607 2.62364 20.2987C4.5 20.8 12 20.8 12 20.8C12 20.8 19.5 20.8 21.3764 20.2987C21.8861 20.1607 22.3503 19.892 22.7227 19.5197C23.0951 19.1473 23.3625 18.6843 23.4982 18.177C24 16.3046 24 12.4 24 12.4C24 12.4 24 8.49535 23.4982 6.62297Z" fill="#FF0302"/>
<path d="M9.54541 15.9457V8.85449L15.8181 12.4001L9.54541 15.9457Z" fill="#FEFEFE"/>
</svg>
