<svg width="68" height="37" viewBox="0 0 68 37" fill="none" xmlns="http://www.w3.org/2000/svg">
<path d="M67.7439 36.2569C67.2625 36.0963 60.2008 33.9768 55.2897 33.1739C50.6033 32.4353 45.8527 32.1463 41.1343 31.9536C41.038 31.1828 40.8133 30.0267 40.3639 28.4853C40.1392 27.7145 39.9787 27.1365 39.8824 26.7511C39.7861 26.2694 39.6256 25.5629 39.4009 24.6958C38.8232 22.512 38.2454 21.1632 37.796 20.6173C37.7639 20.264 37.6355 19.7181 37.3787 18.9795C36.8973 17.5343 36.4158 16.2819 35.8701 15.1579C34.6183 12.4924 33.1417 9.95539 31.601 7.4826C30.3813 5.49152 29.0652 3.30776 27.2677 1.73416C26.722 0.867082 26.1442 0.289027 25.5665 0C25.1813 0.578055 25.0208 1.86262 24.9566 3.8537C24.9245 4.62444 24.9566 5.20249 25.0208 5.58786C24.8282 5.97323 24.6677 6.84031 24.5714 8.12488C24.8924 8.41391 25.3097 8.54236 25.6949 8.70294C26.1121 8.89562 26.5615 9.12042 26.7862 9.5379C26.8504 9.66636 26.8504 9.85904 26.6899 9.92327C25.8875 10.1802 25.0529 10.405 24.2183 10.5977C24.122 11.0794 24.0899 11.8501 23.9294 12.8135C23.448 15.4469 22.9665 17.9839 22.4208 20.5852C21.6826 23.6039 20.8801 26.173 20.0455 29.0954C19.9171 29.5771 20.2702 30.091 20.7517 30.1231C24.1862 30.3158 28.0381 30.958 31.2158 31.793L29.4504 31.7609L27.1072 31.793C23.9615 31.8251 20.848 31.9215 17.7344 32.0499C16.1616 32.1463 14.6209 32.2105 13.0481 32.3068C11.4752 32.4032 9.93449 32.4995 8.36167 32.628C5.56909 32.8207 2.80862 33.1097 0.0481478 33.4308C-0.0160493 33.4308 -0.0160493 33.5593 0.0481478 33.5272C3.1617 33.4951 12.5987 33.3666 17.7665 33.4308C20.8801 33.4629 23.9936 33.5272 27.1072 33.6556L29.4504 33.7199L31.7936 33.8483C33.3343 33.9447 34.9071 33.9768 36.4479 34.1052L41.1022 34.4906L45.7243 35.0044C47.2651 35.165 48.8058 35.3577 50.3465 35.5182L52.6576 35.743C53.428 35.8073 54.1984 35.8715 54.9687 35.9678C59.2057 36.3853 63.4748 36.7065 67.6155 36.9955C68.0328 37.0597 68.1612 36.4174 67.7439 36.2569Z" fill="url(#paint0_linear_1_174)"/>
<defs>
<linearGradient id="paint0_linear_1_174" x1="43.1535" y1="18.7823" x2="34.0617" y2="37.0307" gradientUnits="userSpaceOnUse">
<stop stop-color="#BFFE0B"/>
<stop offset="1" stop-color="#A1B90A"/>
</linearGradient>
</defs>
</svg>
